<?xml version="1.0" encoding="utf-8"?>
<!-- Generator: Adobe Illustrator 25.4.1, SVG Export Plug-In . SVG Version: 6.00 Build 0)  -->
<svg version="1.1" id="Layer_1" xmlns="http://www.w3.org/2000/svg" xmlns:xlink="http://www.w3.org/1999/xlink" x="0px" y="0px"
	 viewBox="0 0 340.2 226.8" style="enable-background:new 0 0 340.2 226.8;" xml:space="preserve">
<style type="text/css">
	.st0{fill:#FFFFFF;}
</style>
<g>
	<rect x="28.2" y="148.6" class="st0" width="101.7" height="2.4"/>
	
		<rect x="72.8" y="92.3" transform="matrix(0.7055 0.7087 -0.7087 0.7055 99.5764 -52.5627)" class="st0" width="80.5" height="2.4"/>
	
		<rect x="185.1" y="92.4" transform="matrix(-0.7087 0.7055 -0.7055 -0.7087 451.1979 1.0282)" class="st0" width="80.5" height="2.4"/>
	<g>
		
			<rect x="74.5" y="116.2" transform="matrix(0.9268 0.3756 -0.3756 0.9268 50.6686 -25.1587)" class="st0" width="30.8" height="2.4"/>
		
			<rect x="122.2" y="120.6" transform="matrix(0.3756 -0.9268 0.9268 0.3756 -44.3341 196.1661)" class="st0" width="2.4" height="20.9"/>
	</g>
	<g>
		
			<rect x="120.5" y="69.6" transform="matrix(0.3931 0.9195 -0.9195 0.3931 147.5536 -82.0279)" class="st0" width="30.8" height="2.4"/>
		
			<rect x="148.9" y="93.6" transform="matrix(0.9195 -0.3931 0.3931 0.9195 -28.8149 67.4081)" class="st0" width="2.4" height="20.9"/>
	</g>
	<g>
		
			<rect x="187.1" y="69.6" transform="matrix(-0.3931 0.9195 -0.9195 -0.3931 347.1084 -87.5533)" class="st0" width="30.8" height="2.4"/>
		
			<rect x="177.8" y="102.8" transform="matrix(0.3931 -0.9195 0.9195 0.3931 18.553 236.2031)" class="st0" width="20.9" height="2.4"/>
	</g>
	<g>
		
			<rect x="232.8" y="115.5" transform="matrix(-0.9209 0.3898 -0.3898 -0.9209 522.1643 127.5237)" class="st0" width="30.8" height="2.4"/>
		
			<rect x="204.4" y="129.6" transform="matrix(0.9209 -0.3898 0.3898 0.9209 -34.0096 94.0762)" class="st0" width="20.9" height="2.4"/>
	</g>
	<rect x="208.2" y="148.6" class="st0" width="101.7" height="2.4"/>
	
		<rect x="129.2" y="69.3" transform="matrix(5.698381e-11 -1 1 5.698381e-11 98.7673 239.761)" class="st0" width="80.2" height="2.4"/>
	<path class="st0" d="M169.3,119.1c-16.9,0-30.5,13.7-30.5,30.5c0,1.4,0.1,2.8,0.3,4.2h2.4c-0.2-1.4-0.3-2.8-0.3-4.2
		c0-15.5,12.6-28.1,28.1-28.1c15.5,0,28.1,12.6,28.1,28.1c0,1.4-0.1,2.8-0.3,4.2h2.4c0.2-1.4,0.3-2.8,0.3-4.2
		C199.8,132.8,186.1,119.1,169.3,119.1z"/>
	<path class="st0" d="M31.1,185.1l-4.6,11.3h1.3H29l1.2-2.9l1.2-2.9h5.1h5.1l1.2,2.9l1.2,2.9h1.3h1.3l-4.6-11.3l-5.5-13.4
		L31.1,185.1z M32.2,188.4l4.3-10.7l4.3,10.7H32.2z"/>
	<polygon class="st0" points="62.8,181 60,181 52.5,188.2 52.5,171.6 50.1,171.6 50.1,196.3 52.5,196.3 52.5,188.7 60.1,196.3 
		63.1,196.3 55.1,188.4 	"/>
	<polygon class="st0" points="69.5,176.1 67.2,176.1 67.2,182.6 63.3,182.6 63.3,184.7 67.2,184.7 67.2,196.3 69.5,196.3 
		69.5,184.7 73.4,184.7 73.4,182.6 69.5,182.6 	"/>
	<polygon class="st0" points="82.4,192.8 77.4,181 74.9,181 81.1,195.2 77.4,202.8 80,202.8 83,196.4 90.2,181 87.6,181 	"/>
	<polygon class="st0" points="107.1,192.5 102.9,181 101.5,181 97.3,192.6 93,181 90.6,181 96.6,196.3 98,196.3 102.2,185.1 
		106.4,196.3 107.8,196.3 113.7,181 111.3,181 	"/>
	<path class="st0" d="M127.3,181.5c-0.9-0.6-2-0.9-3.1-0.9c-1.2,0-2.2,0.3-3.2,0.8c-0.8,0.5-1.5,1.1-2,1.8V181h-2.3v15.4h2.3v-9.1
		c0-0.9,0.2-1.6,0.6-2.3c0.4-0.7,0.9-1.2,1.6-1.6c0.7-0.4,1.5-0.6,2.3-0.6c1.3,0,2.4,0.4,3.2,1.3c0.8,0.8,1.2,1.9,1.2,3.3v9h2.3
		v-9.4c0-1.1-0.3-2.2-0.8-3.1C128.9,182.8,128.2,182.1,127.3,181.5z"/>
	<path class="st0" d="M135.7,174.4c-0.4,0-0.8,0.2-1.1,0.5c-0.3,0.3-0.5,0.7-0.5,1.1c0,0.4,0.2,0.8,0.5,1.1c0.3,0.3,0.7,0.5,1.1,0.5
		c0.5,0,0.9-0.2,1.2-0.5c0.3-0.3,0.4-0.7,0.4-1.1c0-0.5-0.1-0.8-0.4-1.1C136.5,174.6,136.1,174.4,135.7,174.4z"/>
	<rect x="134.5" y="181" class="st0" width="2.3" height="15.4"/>
	<path class="st0" d="M152.1,181.6c-1.1-0.6-2.3-0.9-3.7-0.9c-1.5,0-2.8,0.3-4,1c-1.2,0.7-2.1,1.7-2.8,2.9c-0.7,1.2-1,2.6-1,4.1
		c0,1.5,0.4,2.9,1.1,4.1c0.7,1.2,1.7,2.2,2.9,2.9c1.2,0.7,2.6,1,4.1,1c1.2,0,2.4-0.2,3.4-0.7c1.1-0.5,2-1.1,2.7-2l-1.5-1.5
		c-0.5,0.7-1.2,1.2-2,1.5c-0.8,0.3-1.6,0.5-2.6,0.5c-1.2,0-2.2-0.3-3.1-0.8c-0.9-0.5-1.6-1.2-2.1-2.1c-0.4-0.6-0.6-1.4-0.7-2.2h12.6
		c0.1-0.3,0.1-0.6,0.1-0.8c0-0.2,0-0.4,0-0.6c0-1.5-0.3-2.8-0.9-3.9C154,183.1,153.2,182.2,152.1,181.6z M145.4,183.5
		c0.8-0.5,1.8-0.7,2.9-0.7c1,0,1.9,0.2,2.7,0.7c0.8,0.5,1.3,1.1,1.7,1.9c0.3,0.6,0.5,1.4,0.6,2.2h-10.5c0.1-0.7,0.3-1.4,0.6-2
		C143.9,184.7,144.6,184,145.4,183.5z"/>
	<path class="st0" d="M178.3,183.5c-0.1-0.1-0.1-0.2-0.2-0.3c-0.6-0.8-1.4-1.5-2.3-1.9c-0.9-0.5-2-0.7-3.1-0.7
		c-1.4,0-2.7,0.4-3.8,1.1c-1.1,0.7-2,1.7-2.7,2.9s-1,2.6-1,4.1c0,1.5,0.3,2.9,1,4.1s1.5,2.2,2.7,2.9c1.1,0.7,2.4,1,3.9,1
		c1.2,0,2.2-0.2,3.2-0.7c0.9-0.5,1.7-1.1,2.3-2c0.1-0.1,0.1-0.2,0.1-0.2v2.6h2.3v-24.8h-2.3V183.5z M177.8,191.7
		c-0.4,0.9-1.1,1.6-1.9,2.1c-0.8,0.5-1.7,0.8-2.8,0.8c-1.1,0-2-0.2-2.9-0.7c-0.8-0.5-1.5-1.2-2-2.1c-0.5-0.9-0.7-1.9-0.7-3
		c0-1.1,0.2-2.1,0.7-3c0.5-0.9,1.1-1.6,1.9-2.1c0.8-0.5,1.8-0.8,2.8-0.8c1.1,0,2,0.2,2.8,0.7c0.8,0.5,1.4,1.2,1.9,2
		c0.5,0.9,0.7,1.9,0.7,3C178.4,189.8,178.2,190.8,177.8,191.7z"/>
	<rect x="185.2" y="171.6" class="st0" width="2.3" height="24.8"/>
	<path class="st0" d="M204.4,183.5c0-0.1-0.1-0.1-0.1-0.2c-0.6-0.8-1.3-1.5-2.3-2s-2-0.7-3.2-0.7c-1.4,0-2.7,0.4-3.9,1.1
		c-1.1,0.7-2.1,1.7-2.7,2.9c-0.7,1.2-1,2.6-1,4.1c0,1.5,0.3,2.9,1,4.1c0.7,1.2,1.6,2.2,2.7,2.9c1.2,0.7,2.5,1.1,3.9,1.1
		c1.2,0,2.2-0.2,3.1-0.7c0.9-0.5,1.7-1.1,2.2-2c0.1-0.1,0.1-0.2,0.1-0.2v2.6h2.3V181h-2.3V183.5z M203.1,192.9
		c-1,1.1-2.2,1.6-3.9,1.6c-1.1,0-2-0.3-2.9-0.8c-0.9-0.5-1.5-1.2-2-2.1c-0.5-0.9-0.7-1.9-0.7-3c0-1.1,0.2-2.1,0.7-3
		c0.5-0.9,1.2-1.6,2-2.1c0.8-0.5,1.8-0.8,2.9-0.8c1.1,0,2,0.2,2.8,0.7c0.8,0.5,1.4,1.2,1.9,2c0.4,0.9,0.7,1.9,0.7,3
		C204.5,190.4,204,191.8,203.1,192.9z"/>
	<path class="st0" d="M220.8,183.3c0.5-0.4,1.3-0.6,2.2-0.6c0.9,0,1.6,0.2,2.3,0.5c0.7,0.3,1.2,0.8,1.7,1.4l1.5-1.5
		c-0.6-0.8-1.3-1.4-2.3-1.8c-0.9-0.4-2-0.6-3.1-0.6c-1.1,0-2.1,0.2-2.8,0.5c-0.8,0.4-1.4,0.9-1.8,1.5c-0.4,0.6-0.7,1.4-0.7,2.3
		c0,0.9,0.2,1.7,0.6,2.2c0.4,0.6,0.9,1,1.6,1.3c0.6,0.3,1.3,0.6,2,0.8c0.7,0.2,1.4,0.4,2.1,0.7c0.7,0.2,1.2,0.5,1.6,0.9
		c0.4,0.4,0.6,0.9,0.6,1.5c0,0.7-0.3,1.2-0.9,1.6c-0.6,0.4-1.4,0.6-2.4,0.6c-1,0-1.8-0.2-2.6-0.5c-0.8-0.4-1.5-0.9-2.1-1.7l-1.5,1.5
		c0.5,0.6,1,1.1,1.7,1.5c0.6,0.4,1.3,0.7,2.1,1c0.8,0.2,1.6,0.3,2.4,0.3c1.7,0,3-0.4,4-1.2c1-0.8,1.5-1.9,1.5-3.3
		c0-1-0.2-1.8-0.6-2.3c-0.4-0.6-0.9-1-1.6-1.4c-0.7-0.3-1.3-0.6-2.1-0.8c-0.7-0.2-1.4-0.4-2-0.6c-0.6-0.2-1.2-0.5-1.6-0.8
		c-0.4-0.3-0.6-0.8-0.6-1.4C220.1,184.2,220.3,183.7,220.8,183.3z"/>
	<path class="st0" d="M233.4,176c-0.4,0-0.8,0.2-1.1,0.5c-0.3,0.3-0.5,0.7-0.5,1.1c0,0.4,0.2,0.8,0.5,1.1c0.3,0.3,0.7,0.5,1.1,0.5
		c0.5,0,0.9-0.2,1.2-0.5c0.3-0.3,0.4-0.7,0.4-1.1c0-0.5-0.1-0.8-0.4-1.1C234.2,176.2,233.8,176,233.4,176z"/>
	<rect x="232.2" y="181" class="st0" width="2.3" height="15.4"/>
	<path class="st0" d="M249.8,181.6c-1.1-0.6-2.3-0.9-3.7-0.9c-1.5,0-2.8,0.3-4,1c-1.2,0.7-2.1,1.7-2.8,2.9c-0.7,1.2-1,2.6-1,4.1
		c0,1.5,0.4,2.9,1.1,4.1c0.7,1.2,1.7,2.2,2.9,2.9c1.2,0.7,2.6,1,4.1,1c1.2,0,2.4-0.2,3.4-0.7c1.1-0.5,2-1.1,2.7-2l-1.5-1.5
		c-0.5,0.7-1.2,1.2-2,1.5c-0.8,0.3-1.6,0.5-2.6,0.5c-1.2,0-2.2-0.3-3.1-0.8c-0.9-0.5-1.6-1.2-2.1-2.1c-0.4-0.6-0.6-1.4-0.7-2.2h12.6
		c0.1-0.3,0.1-0.6,0.1-0.8c0-0.2,0-0.4,0-0.6c0-1.5-0.3-2.8-0.9-3.9C251.7,183.1,250.9,182.2,249.8,181.6z M243.1,183.5
		c0.8-0.5,1.8-0.7,2.9-0.7c1,0,1.9,0.2,2.7,0.7s1.3,1.1,1.7,1.9c0.3,0.6,0.5,1.4,0.6,2.2h-10.5c0.1-0.7,0.3-1.4,0.6-2
		C241.6,184.7,242.3,184,243.1,183.5z"/>
	<path class="st0" d="M268.6,181.7c-1.1-0.7-2.4-1.1-3.8-1.1c-1.1,0-2.2,0.2-3.1,0.7c-0.9,0.5-1.7,1.1-2.3,1.9
		c-0.1,0.1-0.1,0.2-0.2,0.3v-12h-2.3v24.8h2.3v-2.7c0.1,0.1,0.1,0.2,0.2,0.3c0.6,0.8,1.4,1.5,2.3,2c0.9,0.5,2,0.7,3.2,0.7
		c1.4,0,2.7-0.4,3.8-1.1c1.1-0.7,2-1.7,2.7-2.9c0.7-1.2,1-2.6,1-4.1c0-1.5-0.3-2.9-1-4.1S269.7,182.4,268.6,181.7z M269.2,191.7
		c-0.5,0.9-1.1,1.6-2,2.1c-0.8,0.5-1.8,0.7-2.9,0.7c-1,0-2-0.2-2.8-0.7c-0.8-0.5-1.4-1.2-1.9-2.1c-0.5-0.9-0.7-1.9-0.7-3
		c0-1.1,0.2-2.1,0.7-3c0.5-0.9,1.1-1.6,1.9-2.1c0.8-0.5,1.8-0.7,2.8-0.7c1.1,0,2,0.2,2.8,0.7c0.8,0.5,1.5,1.2,1.9,2.1
		c0.5,0.9,0.7,1.9,0.7,3C269.9,189.8,269.7,190.8,269.2,191.7z"/>
	<rect x="275.9" y="181" class="st0" width="2.3" height="15.4"/>
	<path class="st0" d="M277.1,176c-0.4,0-0.8,0.2-1.1,0.5c-0.3,0.3-0.5,0.7-0.5,1.1c0,0.4,0.2,0.8,0.5,1.1c0.3,0.3,0.7,0.5,1.1,0.5
		c0.5,0,0.9-0.2,1.2-0.5s0.4-0.7,0.4-1.1c0-0.5-0.1-0.8-0.4-1.1C277.9,176.2,277.5,176,277.1,176z"/>
	<path class="st0" d="M296.1,184.2c-0.6-1.1-1.5-2-2.6-2.6c-1.1-0.6-2.3-0.9-3.7-0.9c-1.5,0-2.8,0.3-4,1c-1.2,0.7-2.1,1.7-2.8,2.9
		c-0.7,1.2-1,2.6-1,4.1c0,1.5,0.4,2.9,1.1,4.1c0.7,1.2,1.7,2.2,2.9,2.9c1.2,0.7,2.6,1,4.1,1c1.2,0,2.4-0.2,3.4-0.7
		c1.1-0.5,2-1.1,2.7-2l-1.5-1.5c-0.5,0.7-1.2,1.2-2,1.5c-0.8,0.3-1.6,0.5-2.6,0.5c-1.2,0-2.2-0.3-3.1-0.8c-0.9-0.5-1.6-1.2-2.1-2.1
		c-0.4-0.6-0.6-1.4-0.7-2.2h12.6c0.1-0.3,0.1-0.6,0.1-0.8c0-0.2,0-0.4,0-0.6C297,186.6,296.7,185.3,296.1,184.2z M286.8,183.5
		c0.8-0.5,1.8-0.7,2.9-0.7c1,0,1.9,0.2,2.7,0.7s1.3,1.1,1.7,1.9c0.3,0.6,0.5,1.4,0.6,2.2h-10.5c0.1-0.7,0.3-1.4,0.6-2
		C285.3,184.7,286,184,286.8,183.5z"/>
</g>
</svg>
